# Blender 4.4.3
# www.blender.org
mtllib npca.mtl
o 立方体
v -0.805269 1.438977 1.424336
v -0.805269 1.791584 1.424336
v -1.898454 1.438977 0.802141
v -1.898454 1.791584 0.802141
v 0.569079 1.438977 -0.990368
v 0.569079 1.791584 -0.990368
v -0.524105 1.438977 -1.612563
v -0.524105 1.791584 -1.612563
v -1.351604 1.438977 -0.158665
v -1.351604 1.791584 -0.158665
v -0.258419 1.438977 0.463530
v -0.258419 1.791584 0.463530
v 0.637623 1.297217 -1.110798
v -0.455562 1.297217 -1.732993
v 0.065720 1.297217 -0.105976
v -1.027465 1.297217 -0.728171
v 0.773192 1.127105 -1.348990
v -0.319993 1.127105 -1.971185
v 0.201289 1.127105 -0.344168
v -0.891896 1.127105 -0.966363
v 0.860844 0.956467 -1.502994
v -0.232340 0.956467 -2.125189
v 0.288942 0.956467 -0.498171
v -0.804243 0.956467 -1.120366
v 0.938758 0.759578 -1.639886
v -0.154427 0.759578 -2.262081
v 0.366855 0.759578 -0.635063
v -0.726330 0.759578 -1.257259
v 1.016671 0.542999 -1.776778
v -0.076514 0.542999 -2.398973
v 0.444768 0.542999 -0.771955
v -0.648417 0.542999 -1.394150
v 1.039396 0.287043 -1.816705
v -0.053789 0.287043 -2.438900
v 0.467493 0.287043 -0.811882
v -0.625692 0.287043 -1.434077
v 1.039396 -1.649037 -1.816705
v -0.053789 -1.649037 -2.438900
v 0.467493 -1.649037 -0.811882
v -0.625692 -1.649037 -1.434077
v -0.464689 1.747751 -1.716957
v -0.364051 1.644537 -1.893776
v 0.729134 1.644537 -1.271581
v 0.628496 1.747751 -1.094762
v 0.804170 1.535592 -1.403418
v -0.289015 1.535592 -2.025613
v 0.894290 1.365479 -1.561757
v -0.198895 1.365479 -2.183952
v 0.975449 1.162027 -1.704352
v -0.117735 1.162027 -2.326548
v 1.033884 0.932323 -1.807022
v -0.059300 0.932323 -2.429217
v 1.050116 0.748559 -1.835541
v -0.043068 0.748559 -2.457736
v 1.040377 0.295713 -1.818429
v -0.052808 0.295713 -2.440624
v -1.898454 -1.652186 0.802141
v -0.805269 -1.652186 1.424336
v -1.351604 -1.652186 -0.158665
v -0.258419 -1.652186 0.463530
vn -0.4947 -0.0000 0.8691
vn -0.8691 -0.0000 -0.4947
vn 0.8691 -0.0000 0.4947
vn -0.0000 1.0000 -0.0000
vn 0.4947 -0.0000 -0.8691
vn -0.1046 -0.9774 0.1838
vn 0.4822 -0.2231 -0.8472
vn 0.1696 0.9394 -0.2979
vn -0.2609 -0.8496 0.4583
vn -0.3863 -0.6247 0.6786
vn -0.3431 -0.7203 0.6028
vn -0.4000 -0.5882 0.7029
vn -0.4869 -0.1767 0.8554
vn -0.0000 -1.0000 -0.0000
vn 0.2238 0.8918 -0.3932
vn 0.2885 0.8122 -0.5070
vn 0.3850 0.6278 -0.6765
vn 0.3376 0.7309 -0.5931
vn 0.4399 0.4573 -0.7729
vn 0.4869 0.1758 -0.8556
vn 0.4942 -0.0434 -0.8683
vt 0.375000 0.000000
vt 0.625000 0.000000
vt 0.625000 0.250000
vt 0.375000 0.250000
vt 0.375000 0.357884
vt 0.625000 0.357884
vt 0.625000 0.500000
vt 0.375000 0.500000
vt 0.625000 0.750000
vt 0.375000 0.750000
vt 0.375000 0.892116
vt 0.625000 0.892116
vt 0.625000 1.000000
vt 0.375000 1.000000
vt 0.767116 0.500000
vt 0.875000 0.500000
vt 0.875000 0.750000
vt 0.767116 0.750000
vt 0.232884 0.500000
vt 0.232884 0.750000
vt 0.125000 0.500000
vt 0.125000 0.750000
s 0
usemtl マテリアル
f 1/1/1 2/2/1 4/3/1 3/4/1
f 9/5/2 10/6/2 8/7/2 7/8/2
f 6/9/3 5/10/3 43/10/3 44/9/3
f 11/11/3 12/12/3 2/13/3 1/14/3
f 9/5/2 7/8/2 14/8/2 16/5/2
f 10/15/4 4/16/4 2/17/4 12/18/4
f 8/7/4 10/15/4 12/18/4 6/9/4
f 9/19/5 11/20/5 60/20/5 59/19/5
f 5/10/3 6/9/3 12/12/3 11/11/3
f 3/4/2 4/3/2 10/6/2 9/5/2
f 16/5/2 14/8/2 18/8/2 20/5/2
f 5/10/3 11/11/3 15/11/3 13/10/3
f 11/20/6 9/19/6 16/19/6 15/20/6
f 33/10/7 34/8/7 56/8/7 55/10/7
f 8/7/8 6/9/8 44/9/8 41/7/8
f 30/8/2 26/8/2 52/8/2 54/8/2
f 15/20/9 16/19/9 20/19/9 19/20/9
f 13/10/3 15/11/3 19/11/3 17/10/3
f 23/20/10 24/19/10 28/19/10 27/20/10
f 19/20/11 20/19/11 24/19/11 23/20/11
f 17/10/3 19/11/3 23/11/3 21/10/3
f 20/5/2 18/8/2 22/8/2 24/5/2
f 27/20/12 28/19/12 32/19/12 31/20/12
f 21/10/3 23/11/3 27/11/3 25/10/3
f 24/5/2 22/8/2 26/8/2 28/5/2
f 29/10/3 33/10/3 55/10/3 53/10/3
f 32/5/2 30/8/2 34/8/2 36/5/2
f 25/10/3 27/11/3 31/11/3 29/10/3
f 28/5/2 26/8/2 30/8/2 32/5/2
f 26/8/2 22/8/2 50/8/2 52/8/2
f 36/5/2 34/8/2 38/8/2 40/5/2
f 25/10/3 29/10/3 53/10/3 51/10/3
f 31/20/13 32/19/13 36/19/13 35/20/13
f 29/10/3 31/11/3 35/11/3 33/10/3
f 40/19/14 38/8/14 37/10/14 39/20/14
f 34/8/5 33/10/5 37/10/5 38/8/5
f 35/20/1 36/19/1 40/19/1 39/20/1
f 33/10/3 35/11/3 39/11/3 37/10/3
f 42/8/15 41/7/15 44/9/15 43/10/15
f 42/8/16 43/10/16 45/10/16 46/8/16
f 48/8/17 47/10/17 49/10/17 50/8/17
f 46/8/18 45/10/18 47/10/18 48/8/18
f 50/8/19 49/10/19 51/10/19 52/8/19
f 52/8/20 51/10/20 53/10/20 54/8/20
f 54/8/21 53/10/21 55/10/21 56/8/21
f 14/8/2 7/8/2 42/8/2 46/8/2
f 18/8/2 14/8/2 46/8/2 48/8/2
f 17/10/3 21/10/3 49/10/3 47/10/3
f 22/8/2 18/8/2 48/8/2 50/8/2
f 13/10/3 17/10/3 47/10/3 45/10/3
f 34/8/2 30/8/2 54/8/2 56/8/2
f 5/10/3 13/10/3 45/10/3 43/10/3
f 21/10/3 25/10/3 51/10/3 49/10/3
f 7/8/2 8/7/2 41/7/2 42/8/2
f 57/21/14 59/19/14 60/20/14 58/22/14
f 3/4/2 9/5/2 59/5/2 57/4/2
f 1/1/1 3/4/1 57/4/1 58/1/1
f 11/11/3 1/14/3 58/14/3 60/11/3
